<svg width="41" height="46" viewBox="0 0 41 46" fill="none" xmlns="http://www.w3.org/2000/svg">
<path d="M8.39388 14.7524C8.39388 14.3966 8.5341 14.0555 8.78368 13.804C9.03327 13.5524 9.37178 13.4111 9.72474 13.4111H23.0334C23.3864 13.4111 23.7249 13.5524 23.9745 13.804C24.224 14.0555 24.3643 14.3966 24.3643 14.7524C24.3643 15.1081 24.224 15.4492 23.9745 15.7007C23.7249 15.9523 23.3864 16.0936 23.0334 16.0936H9.72474C9.37178 16.0936 9.03327 15.9523 8.78368 15.7007C8.5341 15.4492 8.39388 15.1081 8.39388 14.7524ZM9.72474 21.4585C9.37178 21.4585 9.03327 21.5998 8.78368 21.8514C8.5341 22.1029 8.39388 22.444 8.39388 22.7998C8.39388 23.1555 8.5341 23.4966 8.78368 23.7482C9.03327 23.9997 9.37178 24.141 9.72474 24.141H23.0334C23.3864 24.141 23.7249 23.9997 23.9745 23.7482C24.224 23.4966 24.3643 23.1555 24.3643 22.7998C24.3643 22.444 24.224 22.1029 23.9745 21.8514C23.7249 21.5998 23.3864 21.4585 23.0334 21.4585H9.72474ZM8.39388 30.8472C8.39388 30.4914 8.5341 30.1503 8.78368 29.8988C9.03327 29.6472 9.37178 29.5059 9.72474 29.5059H15.0482C15.4012 29.5059 15.7397 29.6472 15.9893 29.8988C16.2389 30.1503 16.3791 30.4914 16.3791 30.8472C16.3791 31.2029 16.2389 31.544 15.9893 31.7956C15.7397 32.0471 15.4012 32.1884 15.0482 32.1884H9.72474C9.37178 32.1884 9.03327 32.0471 8.78368 31.7956C8.5341 31.544 8.39388 31.2029 8.39388 30.8472ZM5.73215 1.34001C5.73215 0.984296 5.87237 0.643148 6.12195 0.391618C6.37154 0.140088 6.71005 -0.0012207 7.06302 -0.0012207C7.41598 -0.0012207 7.75449 0.140088 8.00408 0.391618C8.25366 0.643148 8.39388 0.984296 8.39388 1.34001V2.68125H15.0482V1.34001C15.0482 0.984296 15.1884 0.643148 15.438 0.391618C15.6876 0.140088 16.0261 -0.0012207 16.3791 -0.0012207C16.732 -0.0012207 17.0705 0.140088 17.3201 0.391618C17.5697 0.643148 17.7099 0.984296 17.7099 1.34001V2.68125H24.3643V1.34001C24.3643 0.984296 24.5045 0.643148 24.7541 0.391618C25.0036 0.140088 25.3422 -0.0012207 25.6951 -0.0012207C26.0481 -0.0012207 26.3866 0.140088 26.6362 0.391618C26.8858 0.643148 27.026 0.984296 27.026 1.34001V2.68125H28.3569C29.4158 2.68125 30.4313 3.10517 31.18 3.85976C31.9288 4.61435 32.3494 5.6378 32.3494 6.70495V19.3984C31.4817 19.7739 30.6672 20.3158 29.9592 21.032L29.6877 21.3056V6.70495C29.6877 6.34923 29.5475 6.00808 29.2979 5.75655C29.0483 5.50502 28.7098 5.36372 28.3569 5.36372H4.40129C4.04832 5.36372 3.70981 5.50502 3.46022 5.75655C3.21064 6.00808 3.07042 6.34923 3.07042 6.70495V38.8946C3.07042 39.2503 3.21064 39.5914 3.46022 39.843C3.70981 40.0945 4.04832 40.2358 4.40129 40.2358H14.3029L13.8691 41.9874C13.7933 42.2927 13.7452 42.6042 13.7253 42.9183H4.40129C3.34238 42.9183 2.32685 42.4943 1.57809 41.7397C0.829338 40.9852 0.408691 39.9617 0.408691 38.8946V6.70495C0.408691 5.6378 0.829338 4.61435 1.57809 3.85976C2.32685 3.10517 3.34238 2.68125 4.40129 2.68125H5.73215V1.34001ZM31.8437 22.9285L18.9876 35.8848C18.2383 36.6396 17.7065 37.5853 17.4491 38.621L16.4509 42.6393C16.3525 43.0389 16.3583 43.4575 16.4678 43.8542C16.5773 44.2509 16.7867 44.6123 17.0758 44.9034C17.3648 45.1944 17.7237 45.4052 18.1174 45.5151C18.5112 45.6251 18.9265 45.6306 19.3229 45.531L23.3102 44.5277C24.338 44.2687 25.2765 43.7327 26.0252 42.9773L38.8813 30.021C39.8027 29.0776 40.3167 27.8055 40.3113 26.4818C40.306 25.1582 39.7818 23.8903 38.8529 22.9545C37.9239 22.0188 36.6657 21.4909 35.3523 21.486C34.0389 21.4812 32.7768 21.9997 31.8411 22.9285H31.8437Z" fill="white"/>
</svg>
